<svg id="Arrow_-_Left_Square" data-name="Arrow - Left Square" xmlns="http://www.w3.org/2000/svg" width="35" height="35" viewBox="0 0 35 35">
  <path id="Arrow_-_Left_Square-2" data-name="Arrow - Left Square" d="M24.658,35H10.36C4.164,35,0,31.012,0,25.077V9.905C0,3.981,4.164,0,10.36,0h14.3C30.844,0,35,3.981,35,9.905V25.077C35,31.012,30.844,35,24.658,35ZM16.94,9.629a1.3,1.3,0,0,0-.927.382l-6.6,6.562a1.355,1.355,0,0,0,0,1.855l6.6,6.563a1.32,1.32,0,0,0,1.854,0,1.34,1.34,0,0,0,0-1.873l-4.339-4.306H24.64A1.314,1.314,0,0,0,25.953,17.5a1.3,1.3,0,0,0-1.314-1.312H13.528l4.339-4.323a1.335,1.335,0,0,0,.386-.928,1.378,1.378,0,0,0-.386-.926A1.3,1.3,0,0,0,16.94,9.629Z" fill="#b04759"/>
</svg>
