<svg id="Email_ICON_J" data-name="Email ICON J" xmlns="http://www.w3.org/2000/svg" width="50" height="35.484" viewBox="0 0 50 35.484">
  <path id="Path_1286" data-name="Path 1286" d="M16.86,160a9.3,9.3,0,0,0,.968.061q23.171.015,46.343,0a9.31,9.31,0,0,0,.968-.061A1.34,1.34,0,0,1,66,161.252v.14a17.952,17.952,0,0,0-2.069,1.419q-9.431,8.58-18.82,17.206c-3.025,2.773-5.184,2.776-8.219,0q-9.336-8.546-18.688-17.075A15.443,15.443,0,0,0,16,161.39v-.14A1.339,1.339,0,0,1,16.86,160" transform="translate(-16 -160)" fill="#b04759"/>
  <path id="Path_1287" data-name="Path 1287" d="M30.769,545.5a1.417,1.417,0,0,1,2.333.094c.8.853,1.717,1.593,2.6,2.369,3.431,3.02,7.213,3.006,10.647-.039,1.148-1.018,2.284-2.047,3.569-3.2,3.531,2.92,6.977,5.791,10.449,8.632,1.857,1.52,4.025,2.988,5.638,4.479v1.991c0,.742-.6.99-1.343.99H17.343c-.742,0-1.343-.248-1.343-.99v-2.361c3.078-2.444,6.167-4.874,9.229-7.339,1.873-1.509,3.735-3.037,5.54-4.625" transform="translate(-16 -525.329)" fill="#b04759"/>
  <path id="Path_1288" data-name="Path 1288" d="M743.3,254.921v24.33l-14.05-11.716c4.84-4.384,9.444-8.5,14.05-12.671" transform="translate(-693.298 -250.083)" fill="#b04759"/>
  <path id="Path_1289" data-name="Path 1289" d="M16,277.245v-23.5l13.938,12.631c-4.8,3.944-9.371,7.407-13.938,11.156" transform="translate(-16 -249.019)" fill="#b04759"/>
</svg>
