<svg xmlns="http://www.w3.org/2000/svg" xmlns:xlink="http://www.w3.org/1999/xlink" width="84" height="84" viewBox="0 0 84 84">
  <defs>
    <linearGradient id="linear-gradient" x1="0.5" x2="0.5" y2="1" gradientUnits="objectBoundingBox">
      <stop offset="0" stop-color="#fafafa"/>
      <stop offset="1" stop-color="#efefef"/>
    </linearGradient>
    <filter id="Rectangle_8019" x="0" y="0" width="84" height="84" filterUnits="userSpaceOnUse">
      <feOffset dy="3" input="SourceAlpha"/>
      <feGaussianBlur stdDeviation="5" result="blur"/>
      <feFlood flood-opacity="0.161"/>
      <feComposite operator="in" in2="blur"/>
      <feComposite in="SourceGraphic"/>
    </filter>
  </defs>
  <g id="Filter_J" data-name="Filter J" transform="translate(15 12)">
    <g transform="matrix(1, 0, 0, 1, -15, -12)" filter="url(#Rectangle_8019)">
      <rect id="Rectangle_8019-2" data-name="Rectangle 8019" width="54" height="54" rx="10" transform="translate(15 12)" fill="url(#linear-gradient)"/>
    </g>
    <g id="Iconly_Bold_Filter" data-name="Iconly/Bold/Filter" transform="translate(17 18)">
      <g id="Filter">
        <path id="Filter-2" data-name="Filter" d="M13.122,14.4a3.439,3.439,0,1,1,3.439,3.379A3.41,3.41,0,0,1,13.122,14.4ZM1.508,15.921a1.482,1.482,0,1,1,0-2.963H8.083a1.482,1.482,0,1,1,0,2.963ZM0,3.379A3.409,3.409,0,0,1,3.439,0,3.409,3.409,0,0,1,6.878,3.379,3.409,3.409,0,0,1,3.439,6.758,3.41,3.41,0,0,1,0,3.379ZM11.918,4.86a1.481,1.481,0,1,1,0-2.962h6.575a1.481,1.481,0,1,1,0,2.962Z" fill="#707070"/>
      </g>
    </g>
  </g>
</svg>
