<svg xmlns="http://www.w3.org/2000/svg" width="32" height="32" viewBox="0 0 32 32">
  <g id="Home_A" data-name="Home A" transform="translate(32) rotate(90)">
    <path id="Path_1290" data-name="Path 1290" d="M426.667,597.333h9.92v13.24h-9.92Z" transform="translate(-415.627 -578.573)" fill="#b04759"/>
    <path id="Path_1291" data-name="Path 1291" d="M158.964,98.6,145.257,85.986a1.919,1.919,0,0,0-2.524,0L129.026,98.613A3.043,3.043,0,0,0,128,100.9v13.411a3.368,3.368,0,0,0,3.36,3.2h5.529v-14.4a1.7,1.7,0,0,1,1.778-1.6h10.667a1.7,1.7,0,0,1,1.778,1.6v14.4h5.529a3.368,3.368,0,0,0,3.36-3.2V100.9a3.147,3.147,0,0,0-1.031-2.3Z" transform="translate(-127.995 -85.513)" fill="#b04759"/>
  </g>
</svg>
