<svg xmlns="http://www.w3.org/2000/svg" width="32" height="32" viewBox="0 0 32 32">
  <g id="Info_A" data-name="Info A" transform="translate(32) rotate(90)">
    <path id="info-106" d="M81.291,65.29a16,16,0,1,0,16,16,16,16,0,0,0-16-16Zm.392,5.654a2.6,2.6,0,1,1-2.6,2.6,2.6,2.6,0,0,1,2.6-2.6Zm4.623,19.633H77.6V89.436l1.09-.4a1.554,1.554,0,0,0,1.017-1.456V81.426a1.551,1.551,0,0,0-1.017-1.455l-1.09-.4V78.4h6.6v9.175a1.553,1.553,0,0,0,1.018,1.456l1.09.4v1.141Zm0,0" transform="translate(-65.291 -65.29)" fill="#ccdce4"/>
  </g>
</svg>
