<svg id="Instagram_ICON_J" data-name="Instagram ICON J" xmlns="http://www.w3.org/2000/svg" width="50" height="49.999" viewBox="0 0 50 49.999">
  <path id="Path_1284" data-name="Path 1284" d="M319.727,254.215a12.827,12.827,0,1,0,12.827,12.827A12.809,12.809,0,0,0,319.727,254.215Zm0,21.164a8.337,8.337,0,1,1,8.337-8.337A8.354,8.354,0,0,1,319.727,275.379ZM333.08,250.7a3,3,0,1,0,3,3A2.992,2.992,0,0,0,333.08,250.7Z" transform="translate(-294.734 -242.042)" fill="#b04759"/>
  <path id="Path_1285" data-name="Path 1285" d="M162.367,137.27c0-3.452.031-6.873-.163-10.319-.194-4-1.107-7.555-4.034-10.482s-6.479-3.84-10.482-4.034c-3.452-.194-6.873-.163-10.319-.163s-6.873-.031-10.319.163c-4,.194-7.555,1.107-10.482,4.034s-3.84,6.479-4.034,10.482c-.194,3.452-.163,6.873-.163,10.319s-.031,6.873.163,10.319c.194,4,1.107,7.555,4.034,10.482s6.479,3.84,10.482,4.034c3.452.194,6.873.163,10.319.163s6.873.031,10.319-.163c4-.194,7.555-1.107,10.482-4.034s3.84-6.479,4.034-10.482c.2-3.446.163-6.867.163-10.319Zm-5.5,14.747a8.532,8.532,0,0,1-4.753,4.753c-3.29,1.307-11.1,1.013-14.747,1.013s-11.464.294-14.753-1.007a8.532,8.532,0,0,1-4.753-4.753c-1.3-3.3-1.007-11.107-1.007-14.753s-.294-11.464,1.007-14.753a7.948,7.948,0,0,1,1.889-2.864,8.085,8.085,0,0,1,2.864-1.889c3.29-1.3,11.107-1.007,14.753-1.007s11.464-.294,14.753,1.007a8.532,8.532,0,0,1,4.753,4.753c1.3,3.29,1.007,11.107,1.007,14.753S158.171,148.727,156.864,152.017Z" transform="translate(-112.37 -112.27)" fill="#b04759"/>
</svg>
