<svg id="Main_Home_A" data-name="Main Home A" xmlns="http://www.w3.org/2000/svg" width="32" height="32" viewBox="0 0 32 32">
  <path id="Rectangle_8029" data-name="Rectangle 8029" d="M4,0h7a4,4,0,0,1,4,4V15a0,0,0,0,1,0,0H4a4,4,0,0,1-4-4V4A4,4,0,0,1,4,0Z" fill="#ccdce4"/>
  <path id="Rectangle_8030" data-name="Rectangle 8030" d="M4,0h7a4,4,0,0,1,4,4v7a4,4,0,0,1-4,4H0a0,0,0,0,1,0,0V4A4,4,0,0,1,4,0Z" transform="translate(17)" fill="#ccdce4"/>
  <path id="Rectangle_8031" data-name="Rectangle 8031" d="M0,0H11a4,4,0,0,1,4,4v7a4,4,0,0,1-4,4H4a4,4,0,0,1-4-4V0A0,0,0,0,1,0,0Z" transform="translate(17 17)" fill="#ccdce4"/>
  <path id="Rectangle_8032" data-name="Rectangle 8032" d="M4,0H15a0,0,0,0,1,0,0V11a4,4,0,0,1-4,4H4a4,4,0,0,1-4-4V4A4,4,0,0,1,4,0Z" transform="translate(0 17)" fill="#ccdce4"/>
</svg>
