<svg id="Site_ICON_J" data-name="Site ICON J" xmlns="http://www.w3.org/2000/svg" width="50" height="50" viewBox="0 0 50 50">
  <path id="internet-59" d="M42.9,7.55a25,25,0,1,0,7.1,17.456A25.143,25.143,0,0,0,42.9,7.55ZM16.309,4.715A22.312,22.312,0,0,0,13.58,8.982,21.909,21.909,0,0,1,11.5,7.55a21.951,21.951,0,0,1,4.812-2.835ZM9.276,9.525a25.057,25.057,0,0,0,3.13,2.165,37.638,37.638,0,0,0-2.26,11.862H2.983A21.979,21.979,0,0,1,9.276,9.525Zm0,30.961A21.979,21.979,0,0,1,2.983,26.459h7.163a37.637,37.637,0,0,0,2.26,11.862,25.058,25.058,0,0,0-3.13,2.165ZM11.5,42.462A21.923,21.923,0,0,1,13.58,41.03,22.309,22.309,0,0,0,16.309,45.3,21.95,21.95,0,0,1,11.5,42.462ZM23.553,46.9a7.714,7.714,0,0,1-2.644-1.248A14.659,14.659,0,0,1,17,41.185q-.43-.722-.816-1.5l.235-.1a21.861,21.861,0,0,1,7.136-1.686V46.9Zm0-11.94a24.869,24.869,0,0,0-8.518,2.026,30.868,30.868,0,0,1-.9-2.965,36.413,36.413,0,0,1-1.054-7.562H23.553v8.5Zm0-11.408H13.078a36.409,36.409,0,0,1,1.054-7.562,30.852,30.852,0,0,1,.9-2.965,24.867,24.867,0,0,0,8.518,2.026v8.5Zm0-11.436a21.86,21.86,0,0,1-7.136-1.686l-.235-.1q.387-.78.816-1.5a14.659,14.659,0,0,1,3.911-4.468,7.714,7.714,0,0,1,2.644-1.248Zm21.79,4.3a21.86,21.86,0,0,1,1.686,7.136H39.866a37.64,37.64,0,0,0-2.26-11.862,25.058,25.058,0,0,0,3.13-2.165A21.994,21.994,0,0,1,45.343,16.416ZM38.515,7.55a21.932,21.932,0,0,1-2.083,1.433A22.307,22.307,0,0,0,33.7,4.715,21.947,21.947,0,0,1,38.515,7.55ZM26.459,3.111A7.712,7.712,0,0,1,29.1,4.359a14.659,14.659,0,0,1,3.911,4.468q.43.722.816,1.5l-.235.1a21.859,21.859,0,0,1-7.137,1.686Zm0,11.94a24.869,24.869,0,0,0,8.518-2.026,30.888,30.888,0,0,1,.9,2.965,36.415,36.415,0,0,1,1.054,7.562H26.459Zm0,11.408H36.934a36.416,36.416,0,0,1-1.054,7.562,30.89,30.89,0,0,1-.9,2.965,24.869,24.869,0,0,0-8.518-2.026v-8.5ZM29.1,45.653A7.714,7.714,0,0,1,26.459,46.9V37.895A21.859,21.859,0,0,1,33.6,39.581l.235.1q-.387.78-.816,1.5A14.658,14.658,0,0,1,29.1,45.653Zm4.6-.356a22.314,22.314,0,0,0,2.729-4.268,21.9,21.9,0,0,1,2.083,1.433A21.952,21.952,0,0,1,33.7,45.3Zm11.64-11.7a21.993,21.993,0,0,1-4.607,6.891,25.055,25.055,0,0,0-3.13-2.165,37.637,37.637,0,0,0,2.26-11.862h7.163A21.86,21.86,0,0,1,45.343,33.6Z" transform="translate(-0.006 -0.006)" fill="#b04759"/>
</svg>
