<svg xmlns="http://www.w3.org/2000/svg" width="50" height="50" viewBox="0 0 50 50">
  <path id="whatsapp-14" d="M122.208,115.233c.625.325,1.025.5,1.15.75a4.921,4.921,0,0,1-.525,2.95c-.5,1.4-3.1,2.75-4.25,2.8s-1.175.9-7.4-1.825-9.975-9.375-10.275-9.8-2.4-3.45-2.3-6.525a6.814,6.814,0,0,1,2.375-5.1,1.864,1.864,0,0,1,1.7-.65h1.175c.375,0,.9-.15,1.375,1.125l1.725,4.675a1.14,1.14,0,0,1,.025,1.1l-.675,1.025-.975,1.05c-.3.3-.65.625-.3,1.25a18.553,18.553,0,0,0,3.3,4.45,16.518,16.518,0,0,0,4.875,3.25c.6.35.975.3,1.35-.1l2.025-2.35c.475-.625.875-.475,1.45-.275l4.175,2.2m-11.875-29.9a25,25,0,1,1-13.375,46.125l-11.625,3.875,3.875-11.625a25,25,0,0,1,21.125-38.375m0,5a20,20,0,0,0-16.35,31.525l-2.4,7.225,7.225-2.4a20,20,0,1,0,11.525-36.35Z" transform="translate(-85.333 -85.333)" fill="#b04759"/>
</svg>
